<svg xmlns:xlink="http://www.w3.org/1999/xlink" width="229" xmlns="http://www.w3.org/2000/svg" height="83" id="screenshot-ab092400-3cba-11ed-9104-0beb3d3ba489" viewBox="0 0 229 83" style="-webkit-print-color-adjust: exact;" fill="none" version="1.1"><g id="shape-ab092400-3cba-11ed-9104-0beb3d3ba489" rx="0" ry="0"><g id="shape-9df18c30-3cba-11ed-9104-0beb3d3ba489"><g id="fills-9df18c30-3cba-11ed-9104-0beb3d3ba489"><rect rx="0" ry="0" x="0.0000010287890290783253" y="2.051860974461306e-7" transform="matrix(1,0,0,1,0,0)" width="228.99999924004078" height="83" style="fill: rgb(255, 255, 255); fill-opacity: 1;"/></g></g><g id="shape-08629bc0-3c4a-11ed-9f84-4ba7da7ae03a"><g id="fills-08629bc0-3c4a-11ed-9f84-4ba7da7ae03a"><rect rx="0" ry="0" x="5.13385657541221e-7" y="6.038594619894866e-7" transform="matrix(1,0,0,1,0,0)" width="14.999999495986685" height="82.99999870108468" style="fill: rgb(177, 178, 181); fill-opacity: 1;"/></g></g><g id="shape-22aa0e50-3c4a-11ed-9f84-4ba7da7ae03a"><g id="fills-22aa0e50-3c4a-11ed-9f84-4ba7da7ae03a"><rect rx="0" ry="0" x="50.000000774764885" y="6.038594619894866e-7" transform="matrix(1,0,0,1,0,0)" width="14.999999495986685" height="82.99999870108468" style="fill: rgb(177, 178, 181); fill-opacity: 1;"/></g></g><g id="shape-2b197ad0-3c4a-11ed-9f84-4ba7da7ae03a"><g id="fills-2b197ad0-3c4a-11ed-9f84-4ba7da7ae03a"><rect rx="0" ry="0" x="90.00000077476489" y="6.038594619894866e-7" transform="matrix(1,0,0,1,0,0)" width="14.999999495986685" height="82.99999870108468" style="fill: rgb(177, 178, 181); fill-opacity: 1;"/></g></g><g id="shape-3b53af60-3c4a-11ed-9f84-4ba7da7ae03a"><g id="fills-3b53af60-3c4a-11ed-9f84-4ba7da7ae03a"><rect rx="0" ry="0" x="152.00000077476489" y="6.038594619894866e-7" transform="matrix(1,0,0,1,0,0)" width="14.999999495986685" height="82.99999870108468" style="fill: rgb(177, 178, 181); fill-opacity: 1;"/></g></g><g id="shape-178f71d0-3cb4-11ed-9104-0beb3d3ba489"><g id="fills-178f71d0-3cb4-11ed-9104-0beb3d3ba489"><rect rx="0" ry="0" x="182.00000077476489" y="6.038594619894866e-7" transform="matrix(1,0,0,1,0,0)" width="14.999999495986685" height="82.99999870108468" style="fill: rgb(177, 178, 181); fill-opacity: 1;"/></g></g><g id="shape-1ada1620-3c4a-11ed-9f84-4ba7da7ae03a"><g id="fills-1ada1620-3c4a-11ed-9f84-4ba7da7ae03a"><rect rx="0" ry="0" x="17.00000046673358" y="3.98673364543356e-7" transform="matrix(1,0,0,1,0,0)" width="5.999999589291294" height="82.99999920265236" style="fill: rgb(177, 178, 181); fill-opacity: 1;"/></g></g><g id="shape-1eb7c580-3c4a-11ed-9f84-4ba7da7ae03a"><g id="fills-1eb7c580-3c4a-11ed-9f84-4ba7da7ae03a"><rect rx="0" ry="0" x="34.000000420081506" y="1.934872670972254e-7" transform="matrix(1,0,0,1,0,0)" width="5.999999589291294" height="82.99999920265236" style="fill: rgb(177, 178, 181); fill-opacity: 1;"/></g></g><g id="shape-2015cee0-3c4a-11ed-9f84-4ba7da7ae03a"><g id="fills-2015cee0-3c4a-11ed-9f84-4ba7da7ae03a"><rect rx="0" ry="0" x="42.000000962998456" y="3.98673364543356e-7" transform="matrix(1,0,0,1,0,0)" width="5.999999589291294" height="82.99999920265236" style="fill: rgb(177, 178, 181); fill-opacity: 1;"/></g></g><g id="shape-25363770-3c4a-11ed-9f84-4ba7da7ae03a"><g id="fills-25363770-3c4a-11ed-9f84-4ba7da7ae03a"><rect rx="0" ry="0" x="71.00000096299846" y="3.98673364543356e-7" transform="matrix(1,0,0,1,0,0)" width="5.999999589291294" height="82.99999920265236" style="fill: rgb(177, 178, 181); fill-opacity: 1;"/></g></g><g id="shape-31bb0520-3c4a-11ed-9f84-4ba7da7ae03a"><g id="fills-31bb0520-3c4a-11ed-9f84-4ba7da7ae03a"><rect rx="0" ry="0" x="111.00000096299846" y="3.98673364543356e-7" transform="matrix(1,0,0,1,0,0)" width="5.999999589291294" height="82.99999920265236" style="fill: rgb(177, 178, 181); fill-opacity: 1;"/></g></g><g id="shape-34db57f0-3c4a-11ed-9f84-4ba7da7ae03a"><g id="fills-34db57f0-3c4a-11ed-9f84-4ba7da7ae03a"><rect rx="0" ry="0" x="141.00000096299846" y="3.98673364543356e-7" transform="matrix(1,0,0,1,0,0)" width="5.999999589291294" height="82.99999920265236" style="fill: rgb(177, 178, 181); fill-opacity: 1;"/></g></g><g id="shape-3fc2c950-3c4a-11ed-9f84-4ba7da7ae03a"><g id="fills-3fc2c950-3c4a-11ed-9f84-4ba7da7ae03a"><rect rx="0" ry="0" x="169.00000096299846" y="3.98673364543356e-7" transform="matrix(1,0,0,1,0,0)" width="5.999999589291294" height="82.99999920265236" style="fill: rgb(177, 178, 181); fill-opacity: 1;"/></g></g><g id="shape-1a451bf0-3cb4-11ed-9104-0beb3d3ba489"><g id="fills-1a451bf0-3cb4-11ed-9104-0beb3d3ba489"><rect rx="0" ry="0" x="199.00000096299846" y="3.98673364543356e-7" transform="matrix(1,0,0,1,0,0)" width="5.999999589291294" height="82.99999920265236" style="fill: rgb(177, 178, 181); fill-opacity: 1;"/></g></g><g id="shape-1c368bb0-3cb4-11ed-9104-0beb3d3ba489"><g id="fills-1c368bb0-3cb4-11ed-9104-0beb3d3ba489"><rect rx="0" ry="0" x="207.00000096299846" y="3.98673364543356e-7" transform="matrix(1,0,0,1,0,0)" width="5.999999589291294" height="82.99999920265236" style="fill: rgb(177, 178, 181); fill-opacity: 1;"/></g></g><g id="shape-1e8ab4e0-3cb4-11ed-9104-0beb3d3ba489"><g id="fills-1e8ab4e0-3cb4-11ed-9104-0beb3d3ba489"><rect rx="0" ry="0" x="223.00000096299846" y="3.98673364543356e-7" transform="matrix(1,0,0,1,0,0)" width="5.999999589291294" height="82.99999920265236" style="fill: rgb(177, 178, 181); fill-opacity: 1;"/></g></g><g id="shape-26d3e1e0-3c4a-11ed-9f84-4ba7da7ae03a"><g id="fills-26d3e1e0-3c4a-11ed-9f84-4ba7da7ae03a"><rect rx="0" ry="0" x="82.00000096299846" y="3.98673364543356e-7" transform="matrix(1,0,0,1,0,0)" width="5.999999589291294" height="82.99999920265236" style="fill: rgb(177, 178, 181); fill-opacity: 1;"/></g></g></g></svg>