<svg xmlns:xlink="http://www.w3.org/1999/xlink" width="290" xmlns="http://www.w3.org/2000/svg" height="169" id="screenshot-6ba37e10-3cb4-11ed-9104-0beb3d3ba489" viewBox="-0.5 -0.5 290 169" style="-webkit-print-color-adjust: exact;" fill="none" version="1.1"><g id="shape-6ba37e10-3cb4-11ed-9104-0beb3d3ba489" rx="0" ry="0"><g id="shape-725f8d57-3c48-11ed-9f84-4ba7da7ae03a"><g id="fills-725f8d57-3c48-11ed-9f84-4ba7da7ae03a"><rect rx="8" ry="8" x="0" y="0" transform="matrix(1,0,0,1,0,0)" width="259" height="47.99999999999977" style="fill: rgb(255, 255, 255); fill-opacity: 1;"/></g><g id="strokes-725f8d57-3c48-11ed-9f84-4ba7da7ae03a"><g class="stroke-shape"><rect rx="8" ry="8" x="0" y="0" transform="matrix(1,0,0,1,0,0)" width="259" height="47.99999999999977" style="fill: none; stroke-width: 1; stroke: rgb(177, 178, 181); stroke-opacity: 1;"/></g></g></g><g id="shape-725f8d59-3c48-11ed-9f84-4ba7da7ae03a"><g id="fills-725f8d59-3c48-11ed-9f84-4ba7da7ae03a"><rect rx="8" ry="8" x="30" y="60" transform="matrix(1,0,0,1,0,0)" width="259" height="48" style="fill: rgb(255, 255, 255); fill-opacity: 1;"/></g><g id="strokes-725f8d59-3c48-11ed-9f84-4ba7da7ae03a"><g class="stroke-shape"><rect rx="8" ry="8" x="30" y="60" transform="matrix(1,0,0,1,0,0)" width="259" height="48" style="fill: none; stroke-width: 1; stroke: rgb(228, 228, 228); stroke-opacity: 1;"/></g></g></g><g id="shape-725f8d5b-3c48-11ed-9f84-4ba7da7ae03a"><g id="fills-725f8d5b-3c48-11ed-9f84-4ba7da7ae03a"><rect rx="8" ry="8" x="30" y="120" transform="matrix(1,0,0,1,0,0)" width="259" height="48" style="fill: rgb(255, 255, 255); fill-opacity: 1;"/></g><g id="strokes-725f8d5b-3c48-11ed-9f84-4ba7da7ae03a"><g class="stroke-shape"><rect rx="8" ry="8" x="30" y="120" transform="matrix(1,0,0,1,0,0)" width="259" height="48" style="fill: none; stroke-width: 1; stroke: rgb(228, 228, 228); stroke-opacity: 1;"/></g></g></g><g id="shape-725f8d53-3c48-11ed-9f84-4ba7da7ae03a"><g id="fills-725f8d53-3c48-11ed-9f84-4ba7da7ae03a"><ellipse rx="11.5" ry="11.5" cx="221.5" cy="20.5" transform="matrix(1,0,0,1,0,0)" style="fill: rgb(177, 178, 181); fill-opacity: 1;"/></g><g id="strokes-725f8d53-3c48-11ed-9f84-4ba7da7ae03a"><g class="stroke-shape"><ellipse rx="11.5" ry="11.5" cx="221.5" cy="20.5" transform="matrix(1,0,0,1,0,0)" style="fill: none; stroke-width: 1; stroke: rgb(177, 178, 181); stroke-opacity: 1;"/></g></g></g><g id="shape-725f8d5c-3c48-11ed-9f84-4ba7da7ae03a"><g id="fills-725f8d5c-3c48-11ed-9f84-4ba7da7ae03a"><ellipse rx="11.5" ry="11.5" cx="251.5" cy="140.5" transform="matrix(1,0,0,1,0,0)" style="fill: rgb(221, 218, 218); fill-opacity: 1;"/></g><g id="strokes-725f8d5c-3c48-11ed-9f84-4ba7da7ae03a"><g class="stroke-shape"><ellipse rx="11.5" ry="11.5" cx="251.5" cy="140.5" transform="matrix(1,0,0,1,0,0)" style="fill: none; stroke-width: 1; stroke: rgb(228, 228, 228); stroke-opacity: 1;"/></g></g></g><g id="shape-725f8d50-3c48-11ed-9f84-4ba7da7ae03a"><g id="fills-725f8d50-3c48-11ed-9f84-4ba7da7ae03a"><ellipse rx="11.5" ry="11.5" cx="251.5" cy="80.5" transform="matrix(1,0,0,1,0,0)" style="fill: rgb(221, 218, 218); fill-opacity: 1;"/></g><g id="strokes-725f8d50-3c48-11ed-9f84-4ba7da7ae03a"><g class="stroke-shape"><ellipse rx="11.5" ry="11.5" cx="251.5" cy="80.5" transform="matrix(1,0,0,1,0,0)" style="fill: none; stroke-width: 1; stroke: rgb(228, 228, 228); stroke-opacity: 1;"/></g></g></g><g id="shape-725f8d56-3c48-11ed-9f84-4ba7da7ae03a"><g id="fills-725f8d56-3c48-11ed-9f84-4ba7da7ae03a"><ellipse rx="11.5" ry="11.5" cx="230.5" cy="27.5" transform="matrix(1,0,0,1,0,0)" style="fill: rgb(177, 178, 181); fill-opacity: 1;"/></g><g id="strokes-725f8d56-3c48-11ed-9f84-4ba7da7ae03a"><g class="stroke-shape"><ellipse rx="11.5" ry="11.5" cx="230.5" cy="27.5" transform="matrix(1,0,0,1,0,0)" style="fill: none; stroke-width: 1; stroke: rgb(177, 178, 181); stroke-opacity: 1;"/></g></g></g><g id="shape-725f8d58-3c48-11ed-9f84-4ba7da7ae03a"><g id="fills-725f8d58-3c48-11ed-9f84-4ba7da7ae03a"><ellipse rx="11.5" ry="11.5" cx="260.5" cy="87.5" transform="matrix(1,0,0,1,0,0)" style="fill: rgb(221, 218, 218); fill-opacity: 1;"/></g><g id="strokes-725f8d58-3c48-11ed-9f84-4ba7da7ae03a"><g class="stroke-shape"><ellipse rx="11.5" ry="11.5" cx="260.5" cy="87.5" transform="matrix(1,0,0,1,0,0)" style="fill: none; stroke-width: 1; stroke: rgb(228, 228, 228); stroke-opacity: 1;"/></g></g></g><g id="shape-725f8d5a-3c48-11ed-9f84-4ba7da7ae03a"><g id="fills-725f8d5a-3c48-11ed-9f84-4ba7da7ae03a"><ellipse rx="11.5" ry="11.5" cx="260.5" cy="147.5" transform="matrix(1,0,0,1,0,0)" style="fill: rgb(221, 218, 218); fill-opacity: 1;"/></g><g id="strokes-725f8d5a-3c48-11ed-9f84-4ba7da7ae03a"><g class="stroke-shape"><ellipse rx="11.5" ry="11.5" cx="260.5" cy="147.5" transform="matrix(1,0,0,1,0,0)" style="fill: none; stroke-width: 1; stroke: rgb(228, 228, 228); stroke-opacity: 1;"/></g></g></g><g id="shape-725f8d54-3c48-11ed-9f84-4ba7da7ae03a"><g id="fills-725f8d54-3c48-11ed-9f84-4ba7da7ae03a"><rect rx="0" ry="0" x="28" y="19" transform="matrix(1,0,0,1,0,0)" width="161.00000000000003" height="12.000000000000002" style="fill: rgb(177, 178, 181); fill-opacity: 1;"/></g></g><g id="shape-725f8d55-3c48-11ed-9f84-4ba7da7ae03a"><g id="fills-725f8d55-3c48-11ed-9f84-4ba7da7ae03a"><rect rx="0" ry="0" x="58" y="79" transform="matrix(1,0,0,1,0,0)" width="161.00000000000003" height="12.000000000000002" style="fill: rgb(228, 228, 228); fill-opacity: 1;"/></g></g><g id="shape-725fb460-3c48-11ed-9f84-4ba7da7ae03a"><g id="fills-725fb460-3c48-11ed-9f84-4ba7da7ae03a"><rect rx="0" ry="0" x="58" y="139" transform="matrix(1,0,0,1,0,0)" width="161.00000000000003" height="12.000000000000002" style="fill: rgb(228, 228, 228); fill-opacity: 1;"/></g></g></g></svg>