<svg xmlns:xlink="http://www.w3.org/1999/xlink" width="24.718877999999886" xmlns="http://www.w3.org/2000/svg" height="24.868693" id="screenshot-1ce25b30-1698-11ed-a0bb-dbfa4dd9e918" viewBox="-0.4343465 -0.4343465 24.718877999999886 24.868693" style="-webkit-print-color-adjust: exact;" fill="none" version="1.1"><g id="shape-1ce25b30-1698-11ed-a0bb-dbfa4dd9e918" width="64" version="1.1" height="64" rx="0" ry="0" style="fill: rgb(0, 0, 0);"><g id="shape-1ce408e0-1698-11ed-a0bb-dbfa4dd9e918" rx="0" ry="0" style="display: none; fill: rgb(0, 0, 0);"><g id="shape-1ce4cc30-1698-11ed-a0bb-dbfa4dd9e918" rx="0" ry="0" style="fill: rgb(0, 0, 0);"><g id="shape-1ce604b0-1698-11ed-a0bb-dbfa4dd9e918"><g id="fills-1ce604b0-1698-11ed-a0bb-dbfa4dd9e918"><path rx="0" ry="0" d="M0,0.03456417056943906L0,24L6.055054148703448,24L6.055054148703448,6.632559172174581L10.193802109630951,10.662053662239316L14,6.910521291181993L7.192267545733557,0ZZ" style="stroke-linejoin: miter; fill: rgb(0, 0, 0); fill-opacity: 1;"/></g><g id="strokes-1ce604b0-1698-11ed-a0bb-dbfa4dd9e918"><g class="stroke-shape"><path rx="0" ry="0" d="M0,0.03456417056943906L0,24L6.055054148703448,24L6.055054148703448,6.632559172174581L10.193802109630951,10.662053662239316L14,6.910521291181993L7.192267545733557,0ZZ" style="stroke-linejoin: miter; fill: none; stroke-width: 0.264583; stroke: rgb(0, 0, 0); stroke-opacity: 1;"/></g></g></g><g id="shape-1ce71620-1698-11ed-a0bb-dbfa4dd9e918"><g id="fills-1ce71620-1698-11ed-a0bb-dbfa4dd9e918"><path rx="0" ry="0" d="M11,12.721261741352606L18.179850080408187,4.9822006085659325L16.232706493725686,3.0000000000000284L22.960636304077752,3.010258814573092L23,9.781005526298117L21.238328077120286,8.069399255887845L14.251830654931041,16.00000000000003Z" style="stroke-linejoin: miter; fill: rgb(0, 0, 0); fill-opacity: 1;"/></g><g id="strokes-1ce71620-1698-11ed-a0bb-dbfa4dd9e918"><g class="stroke-shape"><path rx="0" ry="0" d="M11,12.721261741352606L18.179850080408187,4.9822006085659325L16.232706493725686,3.0000000000000284L22.960636304077752,3.010258814573092L23,9.781005526298117L21.238328077120286,8.069399255887845L14.251830654931041,16.00000000000003Z" style="stroke-linejoin: miter; fill: none; stroke-width: 0.264583; stroke: rgb(0, 0, 0); stroke-opacity: 1;"/></g></g></g><g id="shape-1ce7b260-1698-11ed-a0bb-dbfa4dd9e918"><g id="fills-1ce7b260-1698-11ed-a0bb-dbfa4dd9e918"><path rx="0" ry="0" d="M18.003205870353213,13.738775374778754L21.603086670759467,10.000000000000028L24,12.232917877545333L23.995509604343965,24.00000000000003L18,24.00000000000003Z"/></g><g id="strokes-1ce7b260-1698-11ed-a0bb-dbfa4dd9e918"><g class="stroke-shape"><path rx="0" ry="0" d="M18.003205870353213,13.738775374778754L21.603086670759467,10.000000000000028L24,12.232917877545333L23.995509604343965,24.00000000000003L18,24.00000000000003Z" style="fill: none; stroke-width: 0; stroke: rgb(0, 0, 0);"/></g></g></g></g></g><g id="shape-1ce80080-1698-11ed-a0bb-dbfa4dd9e918" rx="0" ry="0" style="fill: rgb(0, 0, 0);"><g id="shape-1ce8c3d0-1698-11ed-a0bb-dbfa4dd9e918"><g id="fills-1ce8c3d0-1698-11ed-a0bb-dbfa4dd9e918"><rect rx="0" ry="0" x="0" y="0" transform="matrix(1,0,0,1,0,0)" width="6.999999999999886" height="24" style="stroke: none; fill: rgb(0, 0, 0); fill-opacity: 1;"/></g><g id="strokes-1ce8c3d0-1698-11ed-a0bb-dbfa4dd9e918"><g class="stroke-shape"><rect rx="0" ry="0" x="0" y="0" transform="matrix(1,0,0,1,0,0)" width="6.999999999999886" height="24" style="stroke: none; fill: none; stroke-width: 0.868693;"/></g></g></g><g id="shape-1ce911f0-1698-11ed-a0bb-dbfa4dd9e918"><g id="fills-1ce911f0-1698-11ed-a0bb-dbfa4dd9e918"><rect rx="0" ry="0" x="17" y="13.999999999999972" transform="matrix(1,0,0,1,0,0)" width="6.999999999999886" height="10" style="stroke: none; fill: rgb(0, 0, 0); fill-opacity: 1;"/></g><g id="strokes-1ce911f0-1698-11ed-a0bb-dbfa4dd9e918"><g class="stroke-shape"><rect rx="0" ry="0" x="17" y="13.999999999999972" transform="matrix(1,0,0,1,0,0)" width="6.999999999999886" height="10" style="stroke: none; fill: none; stroke-width: 0.569063;"/></g></g></g><g id="shape-1ce9ae30-1698-11ed-a0bb-dbfa4dd9e918"><g id="fills-1ce9ae30-1698-11ed-a0bb-dbfa4dd9e918"><path rx="0" ry="0" d="M15,6.232355267064918L10.464005234694014,11L0,0L9.092353748628852,0.009858489183613983Z"/></g><g id="strokes-1ce9ae30-1698-11ed-a0bb-dbfa4dd9e918"><g class="stroke-shape"><path rx="0" ry="0" d="M15,6.232355267064918L10.464005234694014,11L0,0L9.092353748628852,0.009858489183613983Z" style="fill: none; stroke-width: 0.868693;"/></g></g></g><g id="shape-1ce9fc50-1698-11ed-a0bb-dbfa4dd9e918"><g id="fills-1ce9fc50-1698-11ed-a0bb-dbfa4dd9e918"><rect rx="0" ry="0" x="14.206955929222204" y="2.976261804901469" transform="matrix(0.6439991650310108,0.6976657621169287,-0.6439991650310054,0.6976657621169203,12.170006262267378,-8.988142696098503)" width="5.586088141555542" height="13.047476390197119" style="stroke: none; fill: rgb(0, 0, 0); fill-opacity: 1;"/></g><g id="strokes-1ce9fc50-1698-11ed-a0bb-dbfa4dd9e918"><g class="stroke-shape"><rect rx="0" ry="0" x="14.206955929222204" y="2.976261804901469" transform="matrix(0.6439991650310108,0.6976657621169287,-0.6439991650310054,0.6976657621169203,12.170006262267378,-8.988142696098503)" width="5.586088141555542" height="13.047476390197119" style="stroke: none; fill: none; stroke-width: 0.545164;"/></g></g></g><g id="shape-1cea9890-1698-11ed-a0bb-dbfa4dd9e918"><g id="fills-1cea9890-1698-11ed-a0bb-dbfa4dd9e918"><path rx="0" ry="0" d="M16,3L24.000000000000114,3.0115889035769214L23.995892591261622,10.999999999999972Z" style="stroke: none; stroke-linejoin: miter; fill: rgb(0, 0, 0); fill-opacity: 1;"/></g><g id="strokes-1cea9890-1698-11ed-a0bb-dbfa4dd9e918"><g class="stroke-shape"><path rx="0" ry="0" d="M16,3L24.000000000000114,3.0115889035769214L23.995892591261622,10.999999999999972Z" style="stroke: none; stroke-linejoin: miter; fill: none; stroke-width: 0.264583; stroke-opacity: 1;"/></g></g></g><g id="shape-1ceb0dc0-1698-11ed-a0bb-dbfa4dd9e918"><g id="fills-1ceb0dc0-1698-11ed-a0bb-dbfa4dd9e918"><path rx="0" ry="0" d="M17,13.81259589528841L21.453358871140722,10L24,12.165184295198486L23.999457785481923,14.000000000000028Z" style="stroke: none; stroke-linejoin: miter; fill: rgb(0, 0, 0); fill-opacity: 1;"/></g><g id="strokes-1ceb0dc0-1698-11ed-a0bb-dbfa4dd9e918"><g class="stroke-shape"><path rx="0" ry="0" d="M17,13.81259589528841L21.453358871140722,10L24,12.165184295198486L23.999457785481923,14.000000000000028Z" style="stroke: none; stroke-linejoin: miter; fill: none; stroke-width: 0.264583; stroke-opacity: 1;"/></g></g></g></g></g></svg>