<svg xmlns:xlink="http://www.w3.org/1999/xlink" width="115" xmlns="http://www.w3.org/2000/svg" height="148" id="screenshot-6804fa90-3cb4-11ed-9104-0beb3d3ba489" viewBox="-0.5 -0.5 115 148" style="-webkit-print-color-adjust: exact;" fill="none" version="1.1"><g id="shape-6804fa90-3cb4-11ed-9104-0beb3d3ba489" rx="0" ry="0"><g id="shape-600b8b61-3c46-11ed-9f84-4ba7da7ae03a"><g id="fills-600b8b61-3c46-11ed-9f84-4ba7da7ae03a"><ellipse rx="25.5" ry="25.5" cx="44.5" cy="25.5" transform="matrix(1,0,0,1,0,0)" style="fill: rgb(255, 255, 255); fill-opacity: 1;"/></g><g id="strokes-600b8b61-3c46-11ed-9f84-4ba7da7ae03a"><g class="stroke-shape"><ellipse rx="25.5" ry="25.5" cx="44.5" cy="25.5" transform="matrix(1,0,0,1,0,0)" style="fill: none; stroke-width: 1; stroke: rgb(177, 178, 181); stroke-opacity: 1;"/></g></g></g><g id="shape-62e3d8b0-3c46-11ed-9f84-4ba7da7ae03a"><g id="fills-62e3d8b0-3c46-11ed-9f84-4ba7da7ae03a"><ellipse rx="25.5" ry="25.5" cx="64.5" cy="41.5" transform="matrix(1,0,0,1,0,0)" style="fill: rgb(255, 255, 255); fill-opacity: 1;"/></g><g id="strokes-62e3d8b0-3c46-11ed-9f84-4ba7da7ae03a"><g class="stroke-shape"><ellipse rx="25.5" ry="25.5" cx="64.5" cy="41.5" transform="matrix(1,0,0,1,0,0)" style="fill: none; stroke-width: 1; stroke: rgb(177, 178, 181); stroke-opacity: 1;"/></g></g></g><g id="shape-11279f21-3c46-11ed-9f84-4ba7da7ae03a"><g id="fills-11279f21-3c46-11ed-9f84-4ba7da7ae03a"><rect rx="8" ry="8" x="0" y="33" transform="matrix(1,0,0,1,0,0)" width="114" height="114" style="fill: rgb(255, 255, 255); fill-opacity: 1;"/></g><g id="strokes-11279f21-3c46-11ed-9f84-4ba7da7ae03a"><g class="stroke-shape"><rect rx="8" ry="8" x="0" y="33" transform="matrix(1,0,0,1,0,0)" width="114" height="114" style="fill: none; stroke-width: 1; stroke: rgb(177, 178, 181); stroke-opacity: 1;"/></g></g></g><g id="shape-cead3af0-3c46-11ed-9f84-4ba7da7ae03a"><g id="fills-cead3af0-3c46-11ed-9f84-4ba7da7ae03a"><path rx="0" ry="0" d="M51,51L51,101L32,101L57,129L82,101L66,101L66,51L51,51Z" style="fill: rgb(177, 178, 181); fill-opacity: 1;"/></g><g id="strokes-cead3af0-3c46-11ed-9f84-4ba7da7ae03a"><g class="stroke-shape"><path rx="0" ry="0" d="M51,51L51,101L32,101L57,129L82,101L66,101L66,51L51,51Z" style="fill: none; stroke-width: 1; stroke: rgb(177, 178, 181); stroke-opacity: 1;"/></g></g></g></g></svg>