<svg xmlns:xlink="http://www.w3.org/1999/xlink" width="260" xmlns="http://www.w3.org/2000/svg" height="148" id="screenshot-6d68adb0-3cb4-11ed-9104-0beb3d3ba489" viewBox="-0.5 -0.5 260 148" style="-webkit-print-color-adjust: exact;" fill="none" version="1.1"><g id="shape-6d68adb0-3cb4-11ed-9104-0beb3d3ba489" rx="0" ry="0"><g id="shape-1334cce0-3c49-11ed-9f84-4ba7da7ae03a"><g id="fills-1334cce0-3c49-11ed-9f84-4ba7da7ae03a"><rect rx="8" ry="8" x="0" y="0" transform="matrix(1,0,0,1,0,0)" width="259" height="147" style="fill: rgb(255, 255, 255); fill-opacity: 1;"/></g><g id="strokes-1334cce0-3c49-11ed-9f84-4ba7da7ae03a"><g class="stroke-shape"><rect rx="8" ry="8" x="0" y="0" transform="matrix(1,0,0,1,0,0)" width="259" height="147" style="fill: none; stroke-width: 1; stroke: rgb(177, 178, 181); stroke-opacity: 1;"/></g></g></g><g id="shape-d818faa0-3cbb-11ed-9104-0beb3d3ba489" rx="0" ry="0"><g id="shape-d818faa1-3cbb-11ed-9104-0beb3d3ba489"><g id="fills-d818faa1-3cbb-11ed-9104-0beb3d3ba489"><rect rx="0" ry="0" x="74" y="57.999999999999545" transform="matrix(1,0,0,1,0,0)" width="110.99999999999955" height="40" style="fill: rgb(255, 255, 255); fill-opacity: 1;"/></g></g><g id="shape-d818faa2-3cbb-11ed-9104-0beb3d3ba489"><g id="fills-d818faa2-3cbb-11ed-9104-0beb3d3ba489"><rect rx="0" ry="0" x="74.00000023958" y="58.000000192131665" transform="matrix(1,0,0,1,0,0)" width="6.999999520839992" height="39.999999615736215" style="fill: rgb(177, 178, 181); fill-opacity: 1;"/></g></g><g id="shape-d818faa3-3cbb-11ed-9104-0beb3d3ba489"><g id="fills-d818faa3-3cbb-11ed-9104-0beb3d3ba489"><rect rx="0" ry="0" x="98.00000023958046" y="58.000000192131665" transform="matrix(1,0,0,1,0,0)" width="6.999999520839083" height="39.999999615736215" style="fill: rgb(177, 178, 181); fill-opacity: 1;"/></g></g><g id="shape-d818faa4-3cbb-11ed-9104-0beb3d3ba489"><g id="fills-d818faa4-3cbb-11ed-9104-0beb3d3ba489"><rect rx="0" ry="0" x="118.00000023958" y="58.000000192131665" transform="matrix(1,0,0,1,0,0)" width="6.999999520839992" height="39.999999615736215" style="fill: rgb(177, 178, 181); fill-opacity: 1;"/></g></g><g id="shape-d818faa5-3cbb-11ed-9104-0beb3d3ba489"><g id="fills-d818faa5-3cbb-11ed-9104-0beb3d3ba489"><rect rx="0" ry="0" x="148.00000023958" y="58.000000192131665" transform="matrix(1,0,0,1,0,0)" width="6.999999520839083" height="39.999999615736215" style="fill: rgb(177, 178, 181); fill-opacity: 1;"/></g></g><g id="shape-d818faa6-3cbb-11ed-9104-0beb3d3ba489"><g id="fills-d818faa6-3cbb-11ed-9104-0beb3d3ba489"><rect rx="0" ry="0" x="162.00000023958" y="58.000000192131665" transform="matrix(1,0,0,1,0,0)" width="6.999999520839992" height="39.999999615736215" style="fill: rgb(177, 178, 181); fill-opacity: 1;"/></g></g><g id="shape-d818faa7-3cbb-11ed-9104-0beb3d3ba489"><g id="fills-d818faa7-3cbb-11ed-9104-0beb3d3ba489"><rect rx="0" ry="0" x="82.00000035080939" y="58.000000093246854" transform="matrix(1,0,0,1,0,0)" width="2.9999992983812263" height="39.99999981350675" style="fill: rgb(177, 178, 181); fill-opacity: 1;"/></g></g><g id="shape-d818faa8-3cbb-11ed-9104-0beb3d3ba489"><g id="fills-d818faa8-3cbb-11ed-9104-0beb3d3ba489"><rect rx="0" ry="0" x="90.00000035080984" y="58.000000093246854" transform="matrix(1,0,0,1,0,0)" width="2.9999992983803168" height="39.99999981350675" style="fill: rgb(177, 178, 181); fill-opacity: 1;"/></g></g><g id="shape-d81921b0-3cbb-11ed-9104-0beb3d3ba489"><g id="fills-d81921b0-3cbb-11ed-9104-0beb3d3ba489"><rect rx="0" ry="0" x="94.00000035080939" y="58.000000093246854" transform="matrix(1,0,0,1,0,0)" width="2.9999992983812263" height="39.99999981350675" style="fill: rgb(177, 178, 181); fill-opacity: 1;"/></g></g><g id="shape-d81921b1-3cbb-11ed-9104-0beb3d3ba489"><g id="fills-d81921b1-3cbb-11ed-9104-0beb3d3ba489"><rect rx="0" ry="0" x="108.00000035080984" y="58.000000093246854" transform="matrix(1,0,0,1,0,0)" width="2.9999992983803168" height="39.99999981350675" style="fill: rgb(177, 178, 181); fill-opacity: 1;"/></g></g><g id="shape-d81921b2-3cbb-11ed-9104-0beb3d3ba489"><g id="fills-d81921b2-3cbb-11ed-9104-0beb3d3ba489"><rect rx="0" ry="0" x="128.00000035080984" y="58.000000093246854" transform="matrix(1,0,0,1,0,0)" width="2.9999992983803168" height="39.99999981350675" style="fill: rgb(177, 178, 181); fill-opacity: 1;"/></g></g><g id="shape-d81921b3-3cbb-11ed-9104-0beb3d3ba489"><g id="fills-d81921b3-3cbb-11ed-9104-0beb3d3ba489"><rect rx="0" ry="0" x="142.0000003508094" y="58.000000093246854" transform="matrix(1,0,0,1,0,0)" width="2.9999992983807715" height="39.99999981350675" style="fill: rgb(177, 178, 181); fill-opacity: 1;"/></g></g><g id="shape-d81921b4-3cbb-11ed-9104-0beb3d3ba489"><g id="fills-d81921b4-3cbb-11ed-9104-0beb3d3ba489"><rect rx="0" ry="0" x="156.0000003508094" y="58.000000093246854" transform="matrix(1,0,0,1,0,0)" width="2.9999992983812263" height="39.99999981350675" style="fill: rgb(177, 178, 181); fill-opacity: 1;"/></g></g><g id="shape-d81921b5-3cbb-11ed-9104-0beb3d3ba489"><g id="fills-d81921b5-3cbb-11ed-9104-0beb3d3ba489"><rect rx="0" ry="0" x="170.0000003508094" y="58.000000093246854" transform="matrix(1,0,0,1,0,0)" width="2.9999992983812263" height="39.99999981350675" style="fill: rgb(177, 178, 181); fill-opacity: 1;"/></g></g><g id="shape-d81921b6-3cbb-11ed-9104-0beb3d3ba489"><g id="fills-d81921b6-3cbb-11ed-9104-0beb3d3ba489"><rect rx="0" ry="0" x="174.0000003508094" y="58.000000093246854" transform="matrix(1,0,0,1,0,0)" width="2.9999992983812263" height="39.99999981350675" style="fill: rgb(177, 178, 181); fill-opacity: 1;"/></g></g><g id="shape-d81921b7-3cbb-11ed-9104-0beb3d3ba489"><g id="fills-d81921b7-3cbb-11ed-9104-0beb3d3ba489"><rect rx="0" ry="0" x="182.00000035080984" y="58.000000093246854" transform="matrix(1,0,0,1,0,0)" width="2.9999992983803168" height="39.99999981350675" style="fill: rgb(177, 178, 181); fill-opacity: 1;"/></g></g><g id="shape-d81921b8-3cbb-11ed-9104-0beb3d3ba489"><g id="fills-d81921b8-3cbb-11ed-9104-0beb3d3ba489"><rect rx="0" ry="0" x="114.00000035080984" y="58.000000093246854" transform="matrix(1,0,0,1,0,0)" width="2.9999992983803168" height="39.99999981350675" style="fill: rgb(177, 178, 181); fill-opacity: 1;"/></g></g></g><g id="shape-2039c710-3c49-11ed-9f84-4ba7da7ae03a"><g id="fills-2039c710-3c49-11ed-9f84-4ba7da7ae03a"><rect rx="0" ry="0" x="22.000000005295078" y="118.00000007104245" transform="matrix(1,0,0,1,0,0)" width="131" height="12" style="fill: rgb(177, 178, 181); fill-opacity: 1;"/></g></g><g id="shape-8c106fc0-3c49-11ed-9f84-4ba7da7ae03a"><g id="fills-8c106fc0-3c49-11ed-9f84-4ba7da7ae03a"><rect rx="0" ry="0" x="183.00000002359502" y="19.000000227244527" transform="matrix(1,0,0,1,0,0)" width="57.99999995281132" height="11.999999276209564" style="fill: rgb(177, 178, 181); fill-opacity: 1;"/></g></g><g id="shape-8f4709b0-3c49-11ed-9f84-4ba7da7ae03a"><g id="fills-8f4709b0-3c49-11ed-9f84-4ba7da7ae03a"><rect rx="0" ry="0" x="22.00000003173045" y="19.000000361895218" transform="matrix(1,0,0,1,0,0)" width="77.99999999369359" height="11.9999998579151" style="fill: rgb(177, 178, 181); fill-opacity: 1;"/></g></g></g></svg>