<svg xmlns:xlink="http://www.w3.org/1999/xlink" width="260" xmlns="http://www.w3.org/2000/svg" height="169" id="screenshot-69bb5d20-3cb4-11ed-9104-0beb3d3ba489" viewBox="-0.5 -0.5 260 169" style="-webkit-print-color-adjust: exact;" fill="none" version="1.1"><g id="shape-69bb5d20-3cb4-11ed-9104-0beb3d3ba489" rx="0" ry="0"><g id="shape-6d9e9f50-3c47-11ed-9f84-4ba7da7ae03a"><g id="fills-6d9e9f50-3c47-11ed-9f84-4ba7da7ae03a"><rect rx="8" ry="8" x="0" y="0" transform="matrix(1,0,0,1,0,0)" width="259" height="47.99999999999977" style="fill: rgb(255, 255, 255); fill-opacity: 1;"/></g><g id="strokes-6d9e9f50-3c47-11ed-9f84-4ba7da7ae03a"><g class="stroke-shape"><rect rx="8" ry="8" x="0" y="0" transform="matrix(1,0,0,1,0,0)" width="259" height="47.99999999999977" style="fill: none; stroke-width: 1; stroke: rgb(177, 178, 181); stroke-opacity: 1;"/></g></g></g><g id="shape-2dab0d12-3c48-11ed-9f84-4ba7da7ae03a"><g id="fills-2dab0d12-3c48-11ed-9f84-4ba7da7ae03a"><rect rx="8" ry="8" x="0" y="60" transform="matrix(1,0,0,1,0,0)" width="259" height="48" style="fill: rgb(255, 255, 255); fill-opacity: 1;"/></g><g id="strokes-2dab0d12-3c48-11ed-9f84-4ba7da7ae03a"><g class="stroke-shape"><rect rx="8" ry="8" x="0" y="60" transform="matrix(1,0,0,1,0,0)" width="259" height="48" style="fill: none; stroke-width: 1; stroke: rgb(177, 178, 181); stroke-opacity: 1;"/></g></g></g><g id="shape-312d7d12-3c48-11ed-9f84-4ba7da7ae03a"><g id="fills-312d7d12-3c48-11ed-9f84-4ba7da7ae03a"><rect rx="8" ry="8" x="0" y="120" transform="matrix(1,0,0,1,0,0)" width="259" height="48" style="fill: rgb(255, 255, 255); fill-opacity: 1;"/></g><g id="strokes-312d7d12-3c48-11ed-9f84-4ba7da7ae03a"><g class="stroke-shape"><rect rx="8" ry="8" x="0" y="120" transform="matrix(1,0,0,1,0,0)" width="259" height="48" style="fill: none; stroke-width: 1; stroke: rgb(177, 178, 181); stroke-opacity: 1;"/></g></g></g><g id="shape-8a84d8a1-3c47-11ed-9f84-4ba7da7ae03a"><g id="fills-8a84d8a1-3c47-11ed-9f84-4ba7da7ae03a"><ellipse rx="11.5" ry="11.5" cx="221.5" cy="20.5" transform="matrix(1,0,0,1,0,0)" style="fill: rgb(177, 178, 181); fill-opacity: 1;"/></g><g id="strokes-8a84d8a1-3c47-11ed-9f84-4ba7da7ae03a"><g class="stroke-shape"><ellipse rx="11.5" ry="11.5" cx="221.5" cy="20.5" transform="matrix(1,0,0,1,0,0)" style="fill: none; stroke-width: 1; stroke: rgb(177, 178, 181); stroke-opacity: 1;"/></g></g></g><g id="shape-2dab0d10-3c48-11ed-9f84-4ba7da7ae03a"><g id="fills-2dab0d10-3c48-11ed-9f84-4ba7da7ae03a"><ellipse rx="11.5" ry="11.5" cx="221.5" cy="80.5" transform="matrix(1,0,0,1,0,0)" style="fill: rgb(177, 178, 181); fill-opacity: 1;"/></g><g id="strokes-2dab0d10-3c48-11ed-9f84-4ba7da7ae03a"><g class="stroke-shape"><ellipse rx="11.5" ry="11.5" cx="221.5" cy="80.5" transform="matrix(1,0,0,1,0,0)" style="fill: none; stroke-width: 1; stroke: rgb(177, 178, 181); stroke-opacity: 1;"/></g></g></g><g id="shape-312d7d10-3c48-11ed-9f84-4ba7da7ae03a"><g id="fills-312d7d10-3c48-11ed-9f84-4ba7da7ae03a"><ellipse rx="11.5" ry="11.5" cx="221.5" cy="140.5" transform="matrix(1,0,0,1,0,0)" style="fill: rgb(177, 178, 181); fill-opacity: 1;"/></g><g id="strokes-312d7d10-3c48-11ed-9f84-4ba7da7ae03a"><g class="stroke-shape"><ellipse rx="11.5" ry="11.5" cx="221.5" cy="140.5" transform="matrix(1,0,0,1,0,0)" style="fill: none; stroke-width: 1; stroke: rgb(177, 178, 181); stroke-opacity: 1;"/></g></g></g><g id="shape-8a84d8a0-3c47-11ed-9f84-4ba7da7ae03a"><g id="fills-8a84d8a0-3c47-11ed-9f84-4ba7da7ae03a"><ellipse rx="11.5" ry="11.5" cx="230.5" cy="27.5" transform="matrix(1,0,0,1,0,0)" style="fill: rgb(177, 178, 181); fill-opacity: 1;"/></g><g id="strokes-8a84d8a0-3c47-11ed-9f84-4ba7da7ae03a"><g class="stroke-shape"><ellipse rx="11.5" ry="11.5" cx="230.5" cy="27.5" transform="matrix(1,0,0,1,0,0)" style="fill: none; stroke-width: 1; stroke: rgb(177, 178, 181); stroke-opacity: 1;"/></g></g></g><g id="shape-2dab0d11-3c48-11ed-9f84-4ba7da7ae03a"><g id="fills-2dab0d11-3c48-11ed-9f84-4ba7da7ae03a"><ellipse rx="11.5" ry="11.5" cx="230.5" cy="87.5" transform="matrix(1,0,0,1,0,0)" style="fill: rgb(177, 178, 181); fill-opacity: 1;"/></g><g id="strokes-2dab0d11-3c48-11ed-9f84-4ba7da7ae03a"><g class="stroke-shape"><ellipse rx="11.5" ry="11.5" cx="230.5" cy="87.5" transform="matrix(1,0,0,1,0,0)" style="fill: none; stroke-width: 1; stroke: rgb(177, 178, 181); stroke-opacity: 1;"/></g></g></g><g id="shape-312d7d11-3c48-11ed-9f84-4ba7da7ae03a"><g id="fills-312d7d11-3c48-11ed-9f84-4ba7da7ae03a"><ellipse rx="11.5" ry="11.5" cx="230.5" cy="147.5" transform="matrix(1,0,0,1,0,0)" style="fill: rgb(177, 178, 181); fill-opacity: 1;"/></g><g id="strokes-312d7d11-3c48-11ed-9f84-4ba7da7ae03a"><g class="stroke-shape"><ellipse rx="11.5" ry="11.5" cx="230.5" cy="147.5" transform="matrix(1,0,0,1,0,0)" style="fill: none; stroke-width: 1; stroke: rgb(177, 178, 181); stroke-opacity: 1;"/></g></g></g><g id="shape-a25557c0-3c47-11ed-9f84-4ba7da7ae03a"><g id="fills-a25557c0-3c47-11ed-9f84-4ba7da7ae03a"><path rx="0" ry="0" d="M16,26.396L16,26.396ZL26.537,29.753L33.637,10L40,10L28.773,38L16,30.856L16,26.396Z" style="fill: rgb(177, 178, 181); fill-opacity: 1;"/></g></g><g id="shape-2dab0d14-3c48-11ed-9f84-4ba7da7ae03a"><g id="fills-2dab0d14-3c48-11ed-9f84-4ba7da7ae03a"><path rx="0" ry="0" d="M16,86.396L16,86.396ZL26.537,89.753L33.637,70L40,70L28.773,98L16,90.856L16,86.396Z" style="fill: rgb(177, 178, 181); fill-opacity: 1;"/></g></g><g id="shape-1ee1a690-3c48-11ed-9f84-4ba7da7ae03a"><g id="fills-1ee1a690-3c48-11ed-9f84-4ba7da7ae03a"><rect rx="0" ry="0" x="56" y="19" transform="matrix(1,0,0,1,0,0)" width="133.00000000000003" height="12.000000000000002" style="fill: rgb(177, 178, 181); fill-opacity: 1;"/></g></g><g id="shape-2dab0d13-3c48-11ed-9f84-4ba7da7ae03a"><g id="fills-2dab0d13-3c48-11ed-9f84-4ba7da7ae03a"><rect rx="0" ry="0" x="56" y="79" transform="matrix(1,0,0,1,0,0)" width="133.00000000000003" height="12.000000000000002" style="fill: rgb(177, 178, 181); fill-opacity: 1;"/></g></g><g id="shape-312d7d13-3c48-11ed-9f84-4ba7da7ae03a"><g id="fills-312d7d13-3c48-11ed-9f84-4ba7da7ae03a"><rect rx="0" ry="0" x="56" y="139" transform="matrix(1,0,0,1,0,0)" width="133.00000000000003" height="12.000000000000002" style="fill: rgb(177, 178, 181); fill-opacity: 1;"/></g></g></g></svg>